<svg width="43" height="43" viewBox="0 0 43 43" fill="none" xmlns="http://www.w3.org/2000/svg">
<path d="M0 8.5C0 13.1944 3.80558 17 8.5 17C13.1944 17 17 13.1944 17 8.5C17 3.80558 13.1944 0 8.5 0C3.80558 0 0 3.80558 0 8.5Z" fill="#FF7E9E"/>
<path d="M7.90016 22C7.30016 28 6.69938 34 6.09938 40C6.06605 40.3333 6.0331 40.6667 5.99977 41C5.946 41.5303 6.10936 42.039 6.48512 42.4141C6.8593 42.7891 7.41556 43 7.99977 43C8.58398 43 9.14025 42.7891 9.51442 42.4141C9.89018 42.039 10.0535 41.5303 9.99977 41C9.96644 40.6667 9.93349 40.3333 9.90016 40C9.30016 34 8.69938 28 8.09938 22C8.06605 21.6667 8.0331 21.3333 7.99977 21C7.96644 21.3333 7.93349 21.6667 7.90016 22Z" fill="#FF7E9E"/>
<path d="M19.4937 19.7769C23.3121 24.4439 27.1299 29.1113 30.9483 33.7782C31.1604 34.0375 31.3728 34.2965 31.585 34.5558C31.9219 34.9687 32.3971 35.213 32.928 35.2125C33.4578 35.2131 34.0003 34.9689 34.4134 34.5558C34.8265 34.1427 35.0707 33.6002 35.0701 33.0704C35.0706 32.5395 34.8264 32.0643 34.4134 31.7273C34.1541 31.5152 33.8951 31.3028 33.6358 31.0907C28.9689 27.2723 24.3015 23.4545 19.6346 19.6361C19.3753 19.424 19.1163 19.2115 18.857 18.9994C19.0692 19.2587 19.2816 19.5177 19.4937 19.7769Z" fill="#FF7E9E"/>
<path d="M13.7577 22.9089C14.6722 25.94 15.5863 28.9711 16.5008 32.0021C16.5516 32.1705 16.6026 32.3388 16.6534 32.5072C16.7339 32.7753 16.9153 32.9892 17.173 33.0956C17.4298 33.2024 17.742 33.1929 18.0254 33.0755C18.3088 32.9581 18.5363 32.7441 18.6424 32.487C18.7493 32.2295 18.7264 31.9499 18.5937 31.7035C18.5106 31.5485 18.4276 31.3934 18.3445 31.2385C16.8479 28.4486 15.3509 25.6588 13.8543 22.8689C13.7712 22.7139 13.6882 22.5588 13.6051 22.4039C13.6559 22.5722 13.7069 22.7406 13.7577 22.9089Z" fill="#FF7E9E"/>
<path d="M23.3893 15.2242C26.1792 16.7208 28.969 18.2178 31.7589 19.7144C31.9139 19.7975 32.0689 19.8805 32.2239 19.9636C32.4704 20.0963 32.7499 20.1193 33.0074 20.0123C33.2645 19.9062 33.4785 19.6787 33.5959 19.3953C33.7133 19.112 33.7228 18.7998 33.616 18.5429C33.5096 18.2853 33.2957 18.1038 33.0276 18.0233C32.8592 17.9725 32.6909 17.9215 32.5225 17.8707C29.4915 16.9562 26.4604 16.0421 23.4294 15.1276C23.261 15.0768 23.0926 15.0258 22.9243 14.975C23.0793 15.0581 23.2343 15.1411 23.3893 15.2242Z" fill="#FF7E9E"/>
<path d="M22 8.90016C28 8.30016 34 7.69938 40 7.09938C40.3333 7.06605 40.6667 7.0331 41 6.99977C41.5303 6.946 42.039 7.10936 42.4141 7.48512C42.7891 7.8593 43 8.41556 43 8.99977C43 9.58398 42.7891 10.1402 42.4141 10.5144C42.039 10.8902 41.5303 11.0535 41 10.9998C40.6667 10.9664 40.3333 10.9335 40 10.9002C34 10.3002 28 9.69938 22 9.09938C21.6667 9.06605 21.3333 9.0331 21 8.99977C21.3333 8.96644 21.6667 8.93349 22 8.90016Z" fill="#FF7E9E"/>
</svg>
