<svg xmlns="http://www.w3.org/2000/svg" width="1920" height="596" fill="none" viewBox="0 0 1920 596"><g opacity=".18"><path fill="#fff" d="M173.217 118.131C197.66 99.4803 217.962 74.9014 231.307 47.1824C238.21 32.8356 244.165 16.6482 247.955 0.0546875H237.317C234.096 15.0782 229.575 29.8039 222.266 44.313C218.801 51.1886 214.93 57.8206 210.681 64.209C209.733 55.8446 202.641 46.1808 198.716 41.1188C187.969 27.2594 173.65 15.8361 160.332 4.52112C158.599 3.03231 156.84 1.57057 155.053 0.0817568H143.494C143.928 0.433658 144.388 0.75849 144.821 1.11039C155.351 9.36653 165.61 18.0558 175.626 26.9075C180.579 31.2656 185.56 35.705 189.891 40.7128C193.437 44.8273 204.211 57.1439 203.074 63.3428C202.181 68.1882 195.495 69.5146 191.813 69.8123C188.023 70.1372 183.259 68.5401 179.578 67.5114C171.971 65.4271 164.69 62.0976 157.571 58.741C145.741 53.1376 134.237 46.8846 123.301 39.7112C105.841 28.2609 91.7109 14.4014 77.5265 0.108826H61.8534C76.7415 14.5909 91.5484 29.2896 104.406 45.6394C112.229 55.5739 119.294 66.158 124.952 77.5C130.961 89.6 139.19 107.439 135.699 121.271C128.254 150.804 103.269 123.166 94.905 112.663C86.1346 101.646 77.8514 90.2767 70.0283 78.5828C55.7628 57.2251 43.9876 34.6222 31.617 12.1547C35.921 10.1786 40.0355 7.74237 43.8794 4.87303C45.7742 3.46542 47.642 1.86833 49.5098 0.135895H39.7107C28.1792 8.93342 14.3197 12.9668 0.0270693 13.3187V18.4077C0.974496 18.4348 1.92192 18.4618 2.86935 18.4618C1.24519 28.1797 0.351901 38.1954 0.0270693 48.2922V67.7821C0.568456 84.7275 2.40917 101.646 4.87248 117.725C7.38992 134.183 14.6445 165.881 34.1886 171.268C22.9277 173.84 11.5315 175.816 0 177.142V183.368C28.91 181.609 57.2787 174.679 84.4292 164.447C115.153 152.861 147.013 138.162 173.19 118.158L173.217 118.131ZM125.466 62.2058C120.161 53.273 114.151 44.8544 107.655 36.7878C116.019 42.9054 124.546 48.5358 132.856 53.6249C146.716 62.1517 161.847 70.3808 177.629 74.6848C183.449 76.2819 193.627 78.7723 201.206 77.121C190.514 90.6828 178.116 102.864 164.202 113.232C157.11 118.51 149.585 123.383 141.843 127.93C150.776 107.953 135.103 78.4474 125.466 62.1788V62.2058ZM40.4145 165.096C13.5617 165.908 10.0969 111.607 8.44563 94.0664C6.03646 68.5671 7.68769 43.6904 7.98545 18.2453C13.7783 17.7851 19.4899 16.6211 24.985 14.7533C24.985 15.1594 25.0121 15.5654 25.2015 15.9985C34.7299 39.4947 45.314 62.4495 51.4317 87.1638C54.8695 101.104 67.7545 164.257 40.4416 165.096H40.4145ZM55.465 165.638C67.0507 152.807 64.452 124.005 62.9362 110.687C61.2037 95.5552 57.6035 80.613 52.8393 65.9685C61.0413 79.9362 70.1095 93.3897 79.5838 106.221C87.2444 116.588 100.806 136.998 115.667 141.708C103.865 147.339 91.8462 152.401 79.9898 157.057C71.869 160.251 63.6941 163.093 55.438 165.611L55.465 165.638Z"/><path fill="#fff" d="M269.34 52.1631C276.54 36.2193 283.064 18.3806 287.666 0.0546875H278.273C274.429 16.4858 269.178 32.6461 262.275 48.0215C246.872 82.3454 223.62 112.338 195.197 136.917C164.392 163.553 128.552 183.476 89.7351 195.739C60.5002 204.969 30.345 209.815 0.0273438 213.605V219.181C72.6814 211.872 141.952 192.761 199.258 143.982C228.871 118.781 253.315 87.6781 269.34 52.1631Z"/><path fill="#fff" d="M423.554 68.0799C432.812 48.3734 443.585 24.2547 448.322 0.0546875H438.198C433.867 20.9522 425.368 41.4707 416.841 59.8237C399.76 96.638 378.105 131.287 351.468 161.983C290.725 231.958 209.273 281.251 121.081 308.374C81.5601 320.528 41.0644 327.972 0.0273438 331.302V337.501C176.032 329.597 347.516 230.117 423.554 68.0528V68.0799Z"/><path fill="#fff" d="M62.9908 249.824C53.9226 245.465 45.8018 248.551 41.606 255.86C36.9501 264.008 41.606 274.213 49.7268 277.976C58.3349 281.982 68.134 276.974 71.4635 268.393C74.3328 260.976 70.3807 253.397 62.9908 249.851V249.824ZM64.8856 268.745C61.2042 274.051 54.085 275.296 49.2125 270.829C40.2526 262.6 49.4832 250.5 58.8221 253.018C67.3489 255.319 67.6467 264.793 64.8856 268.772V268.745Z"/><path fill="#fff" d="M147.825 247.196C150.694 239.779 146.742 232.2 139.352 228.654C130.284 224.295 122.163 227.381 117.967 234.69C113.311 242.838 117.967 253.043 126.088 256.806C134.696 260.812 144.495 255.804 147.825 247.223V247.196ZM135.183 231.821C143.71 234.122 144.008 243.596 141.247 247.575C137.566 252.881 130.446 254.126 125.574 249.659C116.614 241.43 125.845 229.33 135.183 231.848V231.821Z"/><path fill="#fff" d="M195.09 224.296C203.698 228.303 213.497 223.295 216.827 214.714C219.696 207.297 215.744 199.717 208.354 196.171C199.286 191.813 191.165 194.899 186.969 202.208C182.313 210.356 186.969 220.561 195.09 224.323V224.296ZM204.212 199.338C212.739 201.639 213.037 211.113 210.276 215.093C206.595 220.398 199.475 221.643 194.603 217.177C185.643 208.948 194.874 196.848 204.212 199.365V199.338Z"/><path fill="#fff" d="M251.258 183.015C259.866 187.021 269.665 182.013 272.995 173.432C275.864 166.015 271.912 158.436 264.522 154.89C255.454 150.532 247.333 153.618 243.137 160.926C238.481 169.074 243.137 179.279 251.258 183.042V183.015ZM260.38 158.057C268.907 160.358 269.205 169.832 266.444 173.811C262.763 179.117 255.643 180.362 250.771 175.896C241.811 167.667 251.042 155.567 260.38 158.084V158.057Z"/><path fill="#fff" d="M300.66 134.968C309.268 138.974 319.068 133.967 322.397 125.386C325.266 117.969 321.314 110.389 313.924 106.843C304.856 102.485 296.735 105.571 292.54 112.88C287.884 121.027 292.54 131.233 300.66 134.995V134.968ZM309.783 110.01C318.31 112.311 318.607 121.785 315.846 125.765C312.165 131.07 305.046 132.315 300.173 127.849C291.213 119.62 300.444 107.52 309.783 110.037V110.01Z"/><path fill="#fff" d="M335.172 76.7689C343.78 80.7752 353.579 75.7673 356.909 67.1864C359.778 59.7694 355.826 52.19 348.436 48.6439C339.368 44.2857 331.247 47.3716 327.051 54.6803C322.395 62.8282 327.051 73.0333 335.172 76.796V76.7689ZM344.295 51.811C352.821 54.1119 353.119 63.5861 350.358 67.5653C346.677 72.8709 339.557 74.1161 334.685 69.6497C325.725 61.4206 334.956 49.3206 344.295 51.8381V51.811Z"/><path fill="#fff" d="M351.412 11.126C360.02 15.1323 369.819 10.1245 373.149 1.5435C373.338 1.05625 373.501 0.541935 373.636 0.0546875H367.491C367.248 0.75849 366.923 1.38108 366.571 1.92247C362.89 7.22806 355.77 8.47325 350.898 4.00681C349.545 2.76162 348.651 1.43522 348.056 0.0817568H341.992C343.292 4.81889 346.783 9.01463 351.385 11.1531L351.412 11.126Z"/><path fill="#fff" d="M505.545 60.3654C514.289 61.5023 523.574 61.1775 531.722 57.4419C533.643 56.5486 532.182 53.9229 530.368 54.2207C522.004 55.6824 514.099 57.1442 505.545 56.4404C503.001 56.2238 503.136 60.0135 505.545 60.3383V60.3654Z"/><path fill="#fff" d="M552.16 52.5679C562.798 50.7271 573.626 48.2097 583.209 43.1207C584.995 42.1732 583.75 39.4392 581.855 39.8994C571.488 42.4981 561.445 46.0442 550.996 48.3992C548.262 49.0218 549.453 53.028 552.133 52.5679H552.16Z"/><path fill="#fff" d="M603.538 34.3781C612.579 31.4005 622.08 27.9898 629.687 22.0887C631.23 20.8976 629.551 18.1636 627.765 18.8133C619.075 21.9804 610.955 26.7446 602.401 30.2636C599.937 31.2922 600.858 35.2714 603.538 34.3781Z"/><path fill="#fff" d="M646.738 10.7471C653.722 7.79651 661.356 4.65647 667.609 0.0546875H656.294C652.531 2.27437 648.796 4.52113 644.898 6.44305C642.543 7.60703 644.221 11.8298 646.711 10.7741L646.738 10.7471Z"/><path fill="#fff" d="M529.936 24.661C541.738 34.7308 556.897 9.6375 561.742 1.81447C562.094 1.24601 562.419 0.650487 562.771 0.0820312H556.274C556.085 0.379794 555.923 0.677556 555.733 0.975319C553.243 4.84623 550.563 8.63594 547.531 12.1008C544.635 15.4303 536.243 25.6084 532.995 10.5849C532.426 8.01334 533.59 4.03415 535.16 0.0820312H530.153C529.449 2.35585 528.772 4.62968 528.176 6.93057C526.715 12.5339 524.766 20.2487 529.963 24.688L529.936 24.661Z"/><path fill="#fff" d="M586.672 10.1786C592.059 9.96206 595.036 5.57683 596.742 0.0546875H576.467C578.091 5.65804 580.987 10.3952 586.672 10.1786Z"/><path fill="#fff" d="M1719.04 29.2086C1728.73 45.2066 1737.28 65.0484 1733.27 84.1323C1728.67 106.085 1709.07 119.485 1686.9 113.475C1668.17 108.386 1656.48 91.6846 1650.2 74.3061C1649.41 72.1135 1646.57 72.33 1645.76 73.873C1645.7 73.9542 1645.62 74.0083 1645.54 74.1166C1626.38 106.735 1637.34 150.371 1669.26 169.698C1665.98 181.284 1655.67 229.765 1677.21 227.924C1685.55 227.221 1689.21 215.012 1691.53 208.516C1695 198.744 1696.08 188.024 1691.8 178.469C1696.81 179.552 1701.85 180.12 1706.91 180.228C1709.21 196.768 1712.21 216.934 1722.55 230.198C1729.13 238.644 1741.72 252.395 1753.55 246.684C1767.03 240.16 1768.33 219.885 1766.54 207.135C1765.38 198.798 1762.62 190.84 1759.37 183.098C1757.5 178.631 1755.9 172.378 1752.33 168.67C1757.69 165.692 1762.78 162.173 1767.46 158.221C1774.64 176.926 1784.87 195.739 1801.68 207.216C1814.43 215.933 1835.62 221.428 1847.61 208.218C1859.31 195.333 1851.81 175.545 1844.94 162.336C1834.46 142.196 1817.73 123.356 1797.35 112.934C1797 112.745 1796.67 112.663 1796.35 112.636C1797.97 107.114 1799.19 101.457 1800.08 95.6909C1804.79 96.2052 1811.91 100.536 1816.05 102.079C1821.79 104.218 1827.66 105.95 1833.7 107.087C1842.85 108.847 1852.24 109.361 1861.47 107.899C1874.28 105.869 1889.38 99.4264 1891.93 85.0797C1894.69 69.4066 1879.96 57.3878 1867.05 52.1905C1846.51 43.9073 1821.17 45.3149 1799.46 44.8276C1799.27 44.8276 1799.13 44.8818 1798.97 44.9088C1798.11 40.4153 1797.08 35.9489 1795.83 31.5907C1819.14 32.9171 1842.99 26.7724 1863.8 16.5402C1871.17 12.9129 1881.29 7.44489 1887.38 0.0820312H1878.26C1868.78 8.28404 1853.81 15.0514 1846.94 17.5959C1829.94 23.903 1812.4 25.9603 1794.45 27.1784C1791.77 18.8411 1788.41 10.8015 1784.33 3.35742C1783.73 2.24758 1783.08 1.19187 1782.46 0.109101H1772.74C1784.6 18.6245 1791.69 40.1717 1793.5 62.8287C1797.67 114.748 1772.47 166.206 1716.03 172.08C1665.3 177.359 1627.03 127.389 1647.65 80.884C1657.32 104.488 1678.4 124.736 1705.93 119.918C1736.22 114.612 1744.51 80.8298 1737.06 54.9245C1730.24 31.2659 1717.33 12.0737 1698.17 0.109101H1685.31C1699.49 5.87487 1710.56 15.1326 1719.12 29.2628L1719.04 29.2086ZM1844.04 53.0296C1853.76 54.0312 1863.67 56.1155 1872.14 61.2587C1883.78 68.3238 1891.36 82.2645 1880.13 93.3358C1867.35 105.977 1844.56 104.055 1828.53 99.8866C1820.11 97.694 1809.69 90.2499 1800.7 90.8184C1802.27 77.5544 1801.95 63.9115 1799.92 50.6205C1814.59 51.6491 1829.4 51.5137 1844.04 53.0296ZM1791.09 126.983C1792.53 123.708 1793.77 120.351 1794.91 116.94C1794.91 116.94 1794.91 116.94 1794.94 116.967C1808.53 126.848 1821.14 136.917 1831.08 150.696C1839.68 162.633 1853.49 183.91 1846.51 199.014C1836.33 221.022 1807.88 206.892 1795.97 194.792C1784.73 183.395 1778.53 168.805 1771.28 154.837C1779.59 146.96 1786.47 137.567 1791.12 127.01L1791.09 126.983ZM1747.49 171.187C1754.17 178.577 1757.96 193.925 1759.94 203.264C1762.97 217.584 1761.48 253.207 1736.82 236.154C1718.9 223.756 1717.11 199.935 1712.11 180.201C1724.34 179.687 1736.41 176.547 1747.49 171.187ZM1670.93 193.817C1671.5 186.536 1672.69 179.335 1673.51 172.08C1674.53 172.622 1675.59 173.109 1676.67 173.596C1680.03 175.085 1683.44 176.276 1686.9 177.278C1686.82 177.63 1686.77 178.009 1686.9 178.415C1689.56 186.508 1690.34 193.736 1688.23 202.155C1687.28 205.944 1685.88 209.653 1684.22 213.172C1682.03 217.882 1677.13 229.792 1670.34 213.063C1668.44 208.408 1670.53 198.771 1670.91 193.817H1670.93Z"/><path fill="#fff" d="M1591.08 220.832C1545.66 182.746 1522.16 128.878 1540.14 70.1642C1550.42 36.5171 1574.89 11.7216 1605.08 0.0546875H1588.1C1587.05 0.623143 1585.97 1.1916 1584.91 1.81419C1529.85 34.2703 1513.91 110.768 1539.35 166.937C1567.77 229.684 1640.35 269.232 1705.8 279.6C1781.32 291.564 1860.1 268.285 1919.89 221.292V213.848C1872.87 249.715 1817.52 273.726 1757.75 276.162C1697.9 278.598 1637.15 259.46 1591.11 220.832H1591.08Z"/><path fill="#fff" d="M1219.58 0.0546875H1211.11C1213.92 0.108826 1216.77 0.108826 1219.58 0.0546875Z"/><path fill="#fff" d="M1672.48 335.172C1579.33 312.461 1491.55 245.925 1480.37 145.01C1477.33 117.616 1479.93 89.9243 1486.32 63.1798C1491.71 40.6581 1498.91 18.6508 1512.88 0.0541386H1505.16C1499.86 7.8501 1495.25 16.1062 1491.33 24.8767C1484.54 15.8085 1476.79 7.55234 1468.4 0.0541386H1458.2C1469 9.06822 1478.77 19.1651 1487.05 30.4801C1487.46 31.0485 1487.97 31.4004 1488.49 31.644C1483.72 43.5545 1479.99 56.2501 1477.15 69.6494C1476.31 73.6286 1475.6 77.6077 1474.93 81.614C1450.51 44.8809 1412.94 17.8658 1371.57 0.243624C1371.41 0.135347 1371.22 0.108277 1371.06 0.0270693H1329.48C1321.85 3.4378 1316.14 10.2593 1314.11 22.0344C1311.59 36.6519 1318.11 52.1626 1330.56 58.9841C1311.59 60.0939 1297.38 75.1174 1300.52 96.6646C1302.87 112.771 1317.98 127.875 1334.3 128.823C1322.17 139.163 1316.89 160.034 1324.96 173.433C1335.63 191.164 1360.5 192.463 1377.18 183.341C1370.22 199.636 1371.76 215.472 1389.28 225.081C1402.73 232.444 1422.3 234.529 1431.05 220.48C1434.13 236.884 1452.38 248.036 1468.67 247.197C1480.42 246.602 1496.36 237.1 1498.72 224.838C1499.75 226.597 1500.72 228.357 1501.81 230.062C1509.52 242.406 1518.53 253.748 1528.5 264.224C1456.87 291.239 1365.05 268.419 1310.89 216.23C1281.81 188.213 1259.83 151.345 1251.12 111.85C1242.78 74.1429 1246.22 36.6248 1255.8 0.0270693H1250.01C1249.14 3.05883 1248.3 6.0906 1247.54 9.12236C1230.08 10.8819 1212.49 12.7226 1195.08 14.9152C1196.08 9.93444 1197.25 4.98076 1198.52 0.0270693H1192.65C1177.92 49.8888 1180.71 103.703 1198.41 152.238C1198.41 152.319 1198.47 152.373 1198.49 152.454C1207.75 177.737 1220.99 201.585 1237.93 222.645C1281.65 277.082 1346.48 307.968 1414.43 318.606C1415.08 319.039 1415.86 319.147 1416.56 318.931C1427.31 320.555 1438.14 321.665 1448.97 322.287C1452.13 322.477 1455.3 322.585 1458.49 322.693C1458.74 322.72 1458.98 322.748 1459.23 322.693C1465.45 322.883 1471.73 322.91 1478.01 322.775C1478.39 322.829 1478.77 322.829 1479.15 322.775C1512.01 321.935 1545.12 316.251 1574.65 302.148C1576.76 303.501 1578.87 304.828 1581.04 306.127C1504.19 349.627 1413.18 341.804 1333.92 307.48C1280.81 284.471 1234.12 252.042 1197.98 209.354C1197.76 208.704 1197.3 208.19 1196.71 207.865C1180.14 188.023 1165.85 166.016 1154.21 141.708C1134.47 100.427 1123.05 56.602 1108.6 13.4264C1121.29 8.49977 1134.12 4.00626 1147.06 0.0270693H1126.95C1095.36 11.0984 1064.64 24.9308 1035.35 39.2505C939.197 86.2429 845.726 139.218 751.254 189.485C661.276 237.344 569.619 283.172 466.62 293.242C417.3 298.06 360.888 294.758 319.499 264.467C331.896 268.122 346.703 266.714 354.905 257.402C360.211 251.393 363.595 238.751 362.728 227.924C391.99 244.707 426.856 247.116 460.151 246.277C502.081 245.194 543.768 237.804 583.56 224.567C666.148 197.092 742.43 149.964 818.955 109.225C887.494 72.7353 955.357 33.8908 1025.36 0.0541386H1010.23C1004.76 2.78814 999.318 5.52214 993.877 8.31028C993.173 5.52214 992.388 2.78814 991.522 0.0541386H986.162C987.488 3.46487 988.815 6.84854 990.087 10.2863C982.508 14.2385 974.928 18.2177 967.376 22.2239C964.669 14.8069 961.827 7.41699 958.957 0.0541386H953.543C956.981 8.06666 960.527 16.025 964.344 23.8481C956.765 27.8814 949.239 31.9689 941.687 36.0293C937.139 23.8481 931.888 11.9105 926.501 0.0541386H920.383C926.149 12.7767 931.753 25.5534 937.789 38.1407C931.59 41.4973 925.391 44.8539 919.192 48.2105C911.451 31.4275 900.569 15.4837 890.093 0.0541386H882.676C893.585 16.7018 903.032 34.5405 914.509 50.7279C907.58 54.4635 900.623 58.2261 893.693 61.9075C891.23 63.2339 888.766 64.5333 886.303 65.8597C875.881 43.6087 864.242 21.4389 851.573 0.0270693H843.425C856.013 22.9006 868.789 45.666 881.566 68.4042C873.581 72.7082 865.595 77.0122 857.61 81.3433C858.341 80.6666 858.692 79.6921 858.259 78.6093C851.898 63.0715 844.265 48.2917 835.792 33.8367C829.133 22.4946 821.364 11.5857 814.976 0.0270693H807.694C812.133 10.1781 819.875 19.5982 825.289 28.504C835.548 45.3953 844.995 62.7196 852.927 80.8561C853.495 82.1554 854.822 82.4802 856.04 82.1825C848.812 86.1075 841.585 90.0326 834.384 93.9576C827.048 77.9596 815.896 63.1527 806.855 48.0751C798.382 33.972 790.397 19.4358 781.301 5.71163C784.144 3.84384 786.986 1.92192 789.855 0H776.889C768.958 5.44093 760.918 10.7195 752.851 15.8897C721.289 36.1105 688.453 54.3823 654.671 70.6239C619.67 87.461 583.749 102.187 546.881 114.422C514.289 125.25 477.15 139.272 442.935 129.879C452.165 129.175 460.909 123.544 465.673 114.963C471.249 104.921 471.114 93.2538 466.999 82.9945C517.538 97.6661 576.359 71.3006 621.051 50.0782C647.01 37.7617 672.022 23.4691 695.789 7.36286C699.335 4.95369 702.963 2.49038 706.563 0H695.383C673.971 14.7257 651.585 27.9626 628.36 39.6024C578.417 64.6415 520.597 89.437 464.13 77.1476C463.886 76.7415 463.616 76.3355 463.345 75.9024C476.392 77.6077 490.36 73.4391 494.935 59.6608C499.537 45.8284 492.011 27.4212 480.778 17.7575C493.663 18.0282 501.405 10.2322 504.436 0H498.183C498.048 0.40604 497.913 0.839149 497.75 1.24519C494.177 10.151 485.813 12.0458 477.177 12.6684C478.044 8.44563 478.775 4.22281 479.397 0H470.085C461.829 63.64 428.074 125.358 387.28 172.594C324.913 244.788 241.377 298.548 150.37 326.456C101.401 341.479 51.1334 352.47 0.134766 357.342V364.57C6.6314 380.568 18.9209 388.526 37.3551 386.956C51.9996 385.711 65.7237 375.993 67.9976 361.673C75.5499 373.448 91.3854 377.59 105.624 375.289C119.781 373.015 129.743 360.536 132.179 346.812C148.258 375.073 193.68 356.07 196.685 325.319C206.295 337.284 223.43 341.723 237.993 334.848C251.717 328.378 259.459 313.679 257.808 299.306C269.258 308.536 285.094 311.947 298.52 303.853C311.594 295.976 315.059 280.222 312.867 265.821C342.318 290.264 381.596 299.495 419.114 301.173C506.06 305.098 593.982 275.539 671.237 238.264C707.971 220.534 744.27 201.829 780.381 182.664C775.671 197.417 777.945 212.819 791.073 223.755C802.848 233.527 820.795 235.666 834.492 228.898C831.244 247.874 841.449 265.117 857.339 275.809C871.469 285.311 893.72 291.672 906.957 277.542C907.201 277.271 907.363 277 907.471 276.703C917.135 311.189 964.019 335.172 993.66 307.453C993.958 307.183 994.12 306.885 994.229 306.587C994.662 306.695 995.068 306.804 995.474 306.885C994.959 307.372 994.635 308.103 994.824 309.05C1003.78 351.766 1076.82 354.31 1094.9 317.252C1096.01 317.225 1097.12 317.171 1098.23 317.144C1109.79 346.893 1166.69 341.804 1174.37 311.351V311.378C1187.48 325.021 1204.53 332.98 1222.56 323.126C1240.64 313.246 1249.87 290.346 1249.63 270.504C1249.63 270.26 1249.57 270.044 1249.49 269.827C1249.71 269.556 1249.93 269.286 1250.11 269.015C1250.25 268.988 1250.36 268.934 1250.49 268.88C1308.07 311.216 1379.37 338.827 1449.62 342.319C1496.88 344.674 1546.31 336.878 1586.26 310.106C1586.51 309.944 1586.72 309.754 1586.88 309.565C1596.6 315.168 1606.62 320.257 1616.82 324.724C1712.78 366.708 1838.44 363.595 1919.89 294.947V285.229C1892.88 309.078 1861.07 326.375 1825.01 335.605C1775.31 348.328 1722.15 347.191 1672.48 335.091V335.172ZM1473.44 92.144C1469.94 121.162 1471.62 150.424 1479.23 178.251C1441.2 176.302 1405.71 162.254 1386.57 126.955C1377.67 110.524 1373.5 91.6567 1374.93 72.9789C1376.5 52.5957 1385.24 36.1646 1396.29 19.5711C1427.88 37.5722 1455.11 61.8805 1473.46 92.144H1473.44ZM1319.55 21.5742C1324.64 -0.866219 1344.83 0.433109 1362.91 4.30402C1363.48 4.43937 1364 4.30402 1364.37 4.0604C1364.67 4.16868 1364.97 4.30402 1365.27 4.43937C1352.98 19.7065 1344.42 37.7346 1340.01 56.7102C1325.02 51.8378 1315.79 38.1407 1319.55 21.6013V21.5742ZM1307.1 100.319C1304.63 91.4131 1305.93 81.7223 1311.37 74.197C1318.38 64.4521 1327.7 63.64 1338.6 63.64C1335.14 83.184 1336.03 103.459 1341.74 122.489C1326.34 122.029 1311.97 117.86 1307.12 100.319H1307.1ZM1377.29 177.927C1363.97 186.291 1342.99 186.941 1331.84 174.083C1320.41 160.9 1329.05 136.05 1343.8 128.715C1346.27 135.536 1349.35 142.168 1353.14 148.502C1359.66 159.465 1368.11 169.156 1377.61 177.818C1377.5 177.873 1377.42 177.873 1377.34 177.927H1377.29ZM1429.77 213.712C1418.76 227.978 1405.55 228.844 1390.44 219.992C1375.28 211.087 1376.04 196.604 1382.7 182.339C1392.07 190.243 1402.22 197.227 1412.45 203.48C1418.27 207.026 1424.52 210.22 1431.02 212.927C1430.56 213.036 1430.1 213.306 1429.77 213.712ZM1413.75 196.496C1392.58 183.259 1371.36 167.099 1358.31 145.443C1354.33 138.866 1351.19 132.125 1348.76 125.331C1349.27 124.411 1348.81 123.057 1347.81 122.624C1334.81 83.157 1346.05 41.1183 1369.92 6.38836C1377.45 9.66375 1384.81 13.2369 1391.96 17.162C1364.1 46.7217 1362.32 95.4735 1381.13 130.095C1399.32 163.526 1441.28 189.621 1480.12 183.449C1480.31 183.422 1480.45 183.341 1480.58 183.286C1483.61 193.356 1487.49 203.209 1492.17 212.765C1463.26 215.391 1439.28 212.494 1413.72 196.523L1413.75 196.496ZM1461.42 240.24C1447.5 237.912 1438.25 228.032 1435.27 214.579C1453.81 221.508 1474.17 224.053 1493.06 218.179C1490.9 233.581 1477.09 242.866 1461.42 240.24ZM1194.16 19.5982C1211.38 19.7065 1229.43 17.7575 1246.35 14.4009C1245.16 19.7877 1244.16 25.2015 1243.32 30.6425C1226.13 32.6727 1208.94 34.378 1191.67 35.6774C1192.35 30.3176 1193.16 24.9579 1194.16 19.5982ZM1191.13 40.0626C1208.32 39.4129 1225.54 37.8971 1242.59 35.542C1241.94 40.6311 1241.45 45.7201 1241.13 50.8362C1240.83 50.7821 1240.56 50.755 1240.23 50.8091C1223.4 53.3536 1206.61 56.1688 1189.78 58.6863C1189.99 52.4604 1190.45 46.2615 1191.13 40.0626ZM1189.67 63.1798C1206.8 61.2849 1223.88 59.1465 1240.86 56.1147C1240.67 61.1225 1240.64 66.1304 1240.75 71.1382C1223.97 73.9263 1206.43 78.3928 1190.1 83.5901C1189.67 76.7957 1189.53 69.9742 1189.67 63.1798ZM1190.51 88.5167C1207.26 85.5932 1224.81 81.5057 1240.97 76.2814C1241.26 82.399 1241.8 88.4896 1242.59 94.5261C1242.4 94.5261 1242.21 94.499 1241.99 94.5261C1225.67 98.5053 1208.89 102.024 1192.86 107.167C1191.83 100.942 1191.08 94.7156 1190.54 88.4625L1190.51 88.5167ZM1197.55 129.31C1196 123.49 1194.68 117.67 1193.59 111.85C1210.32 108.873 1226.92 104.082 1243.35 99.9129C1243.97 103.811 1244.67 107.709 1245.51 111.58C1229.33 115.884 1212.89 122.489 1197.55 129.31ZM1198.76 133.722C1214.68 128.363 1231.09 122.814 1246.57 116.263C1247.46 120.052 1248.44 123.815 1249.55 127.578C1233.87 133.533 1218.47 140.625 1203.31 147.853C1201.66 143.224 1200.14 138.514 1198.79 133.75L1198.76 133.722ZM1204.85 152.13C1220.42 146.12 1236.09 139.867 1251.12 132.64C1252.55 137.133 1254.15 141.573 1255.91 145.958C1240.97 151.047 1225.05 159.222 1211.3 167.424C1208.97 162.416 1206.83 157.327 1204.85 152.157V152.13ZM1213.44 171.89C1228.3 165.935 1244.35 158.626 1257.72 150.262C1259.78 155.08 1261.97 159.844 1264.41 164.5C1256.86 168.046 1249.82 173.027 1242.59 177.196C1235.93 181.04 1229.08 184.586 1222.45 188.484C1219.23 183.07 1216.22 177.548 1213.44 171.863V171.89ZM1237.12 210.464C1232.84 204.807 1228.84 198.932 1225.08 192.896C1239.37 186.832 1254.96 178.712 1266.79 168.94C1269.23 173.379 1271.85 177.764 1274.64 182.068C1275.15 182.853 1275.7 183.584 1276.21 184.369C1268.93 187.347 1262.21 192.815 1255.77 197.173C1249.47 201.423 1243.05 205.7 1237.12 210.464ZM1252.55 228.898C1248.25 224.242 1244.13 219.397 1240.21 214.416C1246.92 210.22 1253.39 205.51 1259.97 201.125C1266.17 196.983 1273.45 193.383 1278.92 188.267C1281.84 192.436 1284.84 196.496 1287.98 200.394C1281.62 204.238 1276.26 210.274 1270.55 214.957C1264.68 219.776 1258.51 224.188 1252.55 228.898ZM1256.15 232.742C1262.19 228.871 1267.93 224.351 1273.5 219.884C1279.4 215.147 1286.5 210.247 1291.04 204.021C1293.86 207.378 1296.78 210.599 1299.79 213.766C1299.76 213.794 1299.73 213.794 1299.68 213.821C1293.75 219.289 1288.34 225.379 1282.76 231.199C1278.27 235.855 1273.48 240.43 1269.39 245.492C1264.84 241.404 1260.43 237.181 1256.18 232.769L1256.15 232.742ZM1273.15 248.821C1278.27 244.355 1282.87 239.103 1287.58 234.231C1292.88 228.736 1298.46 223.403 1303.44 217.583C1307.26 221.4 1311.18 225.027 1315.24 228.519C1309.75 234.366 1304.82 240.836 1299.79 247.035C1296.02 251.663 1292.02 256.184 1288.45 261.002C1283.19 257.132 1278.1 253.071 1273.15 248.821ZM1292.51 263.899C1297 259.053 1301.09 253.721 1305.31 248.686C1309.99 243.137 1314.86 237.642 1319.14 231.768C1323.47 235.314 1327.89 238.697 1332.46 241.891C1324.8 252.746 1318.25 264.657 1311.64 276.188C1305.07 272.372 1298.68 268.284 1292.51 263.899ZM1315.46 278.381C1322.85 267.472 1330.62 256.455 1336.95 244.896C1341.37 247.82 1345.86 250.608 1350.46 253.179C1347.29 258.837 1344.97 265.036 1341.77 270.72C1338.66 276.215 1334.92 281.304 1331.54 286.637C1326.07 284.065 1320.71 281.331 1315.46 278.381ZM1335.55 288.478C1343.67 279.599 1351.62 266.849 1354.68 255.399C1359.01 257.7 1363.43 259.838 1367.95 261.842C1362.32 272.696 1357.5 284.174 1353.63 295.814C1347.48 293.594 1341.47 291.131 1335.55 288.478ZM1357.88 297.329C1362.72 286.123 1367.68 275.051 1372.9 264.034C1377.99 266.146 1383.19 268.04 1388.47 269.773C1385.06 275.484 1382.51 281.765 1379.7 287.774C1377.45 292.565 1375.09 297.329 1373.09 302.256C1367.92 300.713 1362.86 299.089 1357.85 297.357L1357.88 297.329ZM1377.88 303.61C1380.64 298.412 1383.03 292.998 1385.57 287.72C1388.17 282.306 1391.01 276.946 1393.01 271.262C1396.7 272.399 1400.43 273.427 1404.19 274.348C1400.24 284.986 1396.67 296.761 1395.07 308.022C1389.28 306.695 1383.54 305.207 1377.88 303.61ZM1413.8 311.839C1409.17 311.027 1404.6 310.133 1400.05 309.159C1403.79 298.331 1406.6 286.691 1409.36 275.566C1413.59 276.513 1417.86 277.352 1422.19 278.083C1418.32 288.776 1415.59 300.524 1413.83 311.866L1413.8 311.839ZM1419.41 312.759C1422.44 301.688 1425.15 290.102 1426.85 278.841C1427.36 278.922 1427.85 279.031 1428.34 279.085C1432.29 279.626 1436.32 280.086 1440.39 280.465C1437.65 291.645 1436.43 303.501 1434.84 314.87C1429.67 314.275 1424.52 313.571 1419.41 312.759ZM1456.46 316.603C1451.02 316.359 1445.58 315.953 1440.17 315.412C1442.17 304.07 1444.66 292.403 1445.5 280.871C1449.02 281.115 1452.54 281.331 1456.09 281.44C1455.68 287.016 1456.46 292.673 1456.6 298.277C1456.76 304.395 1456.6 310.485 1456.49 316.603H1456.46ZM1474.93 298.358C1475.03 304.53 1475.22 310.729 1475.49 316.901C1471.05 316.955 1466.62 316.928 1462.15 316.819C1463.23 305.613 1463.94 292.213 1460.71 281.548C1465.64 281.602 1470.57 281.521 1475.49 281.25C1474.17 286.772 1474.82 292.701 1474.93 298.358ZM1481.23 316.738C1481.23 310.62 1481.15 304.476 1481.02 298.358C1480.88 292.565 1481.29 286.529 1479.66 280.952C1483.7 280.655 1487.7 280.276 1491.68 279.761C1491.82 291.807 1493.52 303.988 1495.15 315.926C1490.52 316.305 1485.89 316.603 1481.23 316.738ZM1500.59 315.412C1499.72 303.312 1498.83 290.968 1496.47 279.085C1501.29 278.327 1506.06 277.406 1510.74 276.27C1511.88 284.065 1513.45 291.807 1514.99 299.549C1515.61 302.716 1515.53 309.186 1517.37 313.084C1511.82 314.031 1506.22 314.816 1500.59 315.412ZM1523.49 311.947C1523.27 311.568 1522.92 311.297 1522.51 311.135C1520.56 307.778 1520 296.815 1519.37 293.621C1518.18 287.422 1516.99 281.196 1515.48 275.078C1519.37 274.023 1523.19 272.832 1526.95 271.478C1530.23 283.93 1534.4 296.274 1538.3 308.536C1533.42 309.835 1528.47 310.999 1523.49 311.974V311.947ZM1543.3 307.101C1540.14 294.541 1536.29 281.819 1531.01 269.962C1531.74 269.665 1532.48 269.367 1533.21 269.069C1538.11 273.914 1543.22 278.57 1548.53 282.983C1548.15 283.416 1547.96 284.011 1548.18 284.769C1549.2 288.505 1550.18 292.24 1551.32 295.949C1552.1 298.493 1552.67 301.309 1553.78 303.772C1550.34 304.99 1546.85 306.073 1543.33 307.129L1543.3 307.101ZM1558.57 301.985C1558 299.468 1556.92 297.005 1556.11 294.595C1555.24 292.024 1554.29 289.452 1553.32 286.908C1558.16 290.752 1563.17 294.46 1568.29 297.952C1565.09 299.36 1561.85 300.713 1558.54 301.958L1558.57 301.985ZM30.696 381.298C16.6741 380.757 10.2316 372.907 4.11396 361.917C23.5497 360.509 43.0938 358.317 62.6108 355.285C61.7175 372.636 47.2625 381.948 30.7231 381.298H30.696ZM102.132 369.686C87.8123 370.985 76.768 366.031 70.0007 354.121C89.1658 350.954 108.25 346.948 127.09 342.075C123.084 355.42 118.346 368.224 102.132 369.686ZM172.783 349.979C158.436 358.1 143.088 353.011 134.507 340.099C153.104 335.037 171.456 329.109 189.376 322.233C187.346 333.413 184.125 343.537 172.756 349.979H172.783ZM756.1 21.7637C762.813 17.4597 769.905 13.0203 777.078 8.41856C784.55 23.9564 793.726 38.7903 802.578 53.5702C811.132 67.8628 819.117 83.5901 829.81 96.448C822.257 100.563 814.678 104.704 807.098 108.819C807.098 108.386 807.098 107.925 806.828 107.492C798.923 92.6312 788.177 78.9883 778.892 64.9393C769.959 51.4046 761.459 37.5452 752.039 24.3353C753.393 23.4691 754.746 22.657 756.1 21.7908V21.7637ZM748.304 26.6633C756.343 41.6326 765.736 55.9252 774.967 70.1637C783.765 83.7796 792.102 98.3428 802.74 110.659C802.876 110.795 803.011 110.876 803.146 110.984C793.428 116.263 783.683 121.541 773.938 126.82C769.391 111.282 759.402 96.9623 751.065 83.2923C742.376 69.0538 734.715 54.4093 726.594 39.9002C733.903 35.5962 741.13 31.1839 748.331 26.6904L748.304 26.6633ZM722.182 42.4176C727 56.6832 735.527 69.7847 743.323 82.5073C752.662 97.7744 760.485 113.799 769.499 129.175C761.351 133.56 753.176 137.918 745.001 142.249C745.001 142.195 745.001 142.168 744.947 142.114C730.303 113.393 715.198 83.2382 697.007 56.5207C705.48 51.946 713.872 47.263 722.182 42.4447V42.4176ZM693.38 58.4697C706.265 88.1377 723.698 117.075 740.183 144.821C731.548 149.369 722.913 153.889 714.223 158.356C706.888 143.332 696.601 129.391 687.939 115.045C679.981 101.862 669.505 88.0565 663.523 73.6556C673.565 68.7831 683.5 63.6941 693.353 58.4427L693.38 58.4697ZM647.065 81.5057C651.206 79.6109 655.294 77.6619 659.408 75.6858C663.766 89.9514 673.701 103.594 681.145 116.1C690.051 131.07 698.55 147.203 709.568 160.765C699.01 166.179 688.426 171.511 677.815 176.763C678.194 176.059 678.33 175.193 677.896 174.272C664.227 145.092 651.91 114.53 635.912 86.5136C639.648 84.8623 643.356 83.184 647.065 81.4787V81.5057ZM631.933 88.3001C643.491 118.618 659.3 147.744 673.241 177.006C673.592 177.737 674.134 178.143 674.702 178.279C665.986 182.555 657.27 186.805 648.499 190.947C642.706 174.164 635.154 157.841 628.333 141.464C622.242 126.901 616.666 111.85 609.438 97.8015C616.991 94.7426 624.489 91.5755 631.96 88.3001H631.933ZM604.945 99.6151C610.304 116.073 617.803 132.044 624.462 147.988C630.742 163.039 636.562 178.495 643.789 193.14C635.641 196.929 627.412 200.557 619.129 203.994C614.392 187.645 608.437 171.592 602.914 155.486C597.636 140.111 588.568 122.678 587.35 106.41C593.224 104.19 599.098 101.943 604.945 99.6151ZM583.127 108.007C582.234 111.147 582.802 113.529 583.804 117.427C586.402 127.497 590.463 137.323 593.792 147.176C600.451 166.801 606.596 186.751 614.229 205.998C604.647 209.868 594.956 213.496 585.184 216.825C585.184 216.717 585.157 216.636 585.13 216.528C575.195 184.234 567.67 149.125 553.729 118.347C563.583 115.072 573.382 111.607 583.1 108.007H583.127ZM534.619 124.519C539.708 122.949 544.77 121.325 549.805 119.646C555.651 152.806 569.349 185.966 579.364 218.125C579.418 218.314 579.5 218.504 579.608 218.666C569.105 222.104 558.467 225.19 547.747 227.87C541.63 193.979 538.544 159.141 531.506 125.493C532.561 125.169 533.59 124.844 534.619 124.519ZM527.066 126.874C527.987 160.819 535.322 196.09 541.63 229.331C531.154 231.768 520.542 233.852 509.85 235.449C509.85 235.449 509.85 235.422 509.85 235.395C510.689 217.773 509.011 199.826 508.334 182.204C507.712 166.179 508.145 149.666 505.384 133.831C505.33 133.56 505.248 133.343 505.14 133.181C512.611 131.286 519.947 129.067 527.066 126.874ZM501.783 134.02C501.783 134.02 501.702 134.237 501.675 134.345C499.997 150.966 501.783 168.209 502.325 184.883C502.893 201.639 502.568 218.774 504.572 235.422C504.599 235.693 504.707 235.936 504.788 236.18C503.164 236.396 501.54 236.64 499.916 236.857C491.064 237.939 481.942 238.914 472.657 239.618C475.851 205.835 480.534 171.728 481.671 137.81C488.384 136.998 495.097 135.671 501.756 134.074L501.783 134.02ZM477.313 138.216C472.143 171.782 470.329 206.133 467.135 239.915C456.063 240.592 444.83 240.782 433.677 240.24C437.819 222.239 441.825 204.211 445.858 186.183C449.431 170.293 454.087 154.16 456.036 137.972C463.02 138.866 470.167 138.866 477.34 138.216H477.313ZM451.922 137.35C446.481 153.429 443.666 170.753 439.876 187.239C435.843 204.779 431.782 222.347 427.857 239.915C409.017 238.535 390.583 234.853 373.691 227.436C381.785 227.572 390.312 224.513 396.376 219.37C405.877 211.357 406.039 191.84 400.138 180.092C412.807 185.371 428.02 179.794 435.68 168.128C441.879 158.68 443.016 143.955 437.683 133.235C442.312 135.13 447.076 136.456 451.922 137.35ZM475.256 20.7622C480.778 30.8049 490.035 38.1407 489.711 51.0798C489.25 69.0268 473.144 71.1111 459.122 70.4885C459.095 70.4614 459.068 70.4073 459.014 70.3802C465.213 54.8424 471.087 38.0053 475.256 20.7622ZM455.197 79.7192C455.441 79.1507 455.684 78.5552 455.928 77.9597C456.009 78.6635 456.415 79.3673 457.281 79.7192C457.552 79.8274 457.85 79.9357 458.121 80.044C462.831 88.246 465.646 97.2871 462.425 106.978C457.985 120.323 446.048 126.414 433.136 123.49C441.446 109.495 448.863 94.9051 455.197 79.7462V79.7192ZM428.48 131.124C433.542 140.923 438.062 149.802 432.351 161.55C425.665 175.274 411.345 179.226 397.783 173.596C408.936 160.115 419.222 145.931 428.507 131.097L428.48 131.124ZM393.127 179.118C396.376 188.24 400.544 202.614 395.428 211.438C388.201 223.917 369.09 223.972 359.074 215.77C358.939 215.553 358.776 215.391 358.641 215.174C370.795 203.751 382.327 191.732 393.127 179.091V179.118ZM234.745 328.595C220.993 335.091 207.134 329.758 198.201 318.768C215.986 311.595 233.31 303.447 250.039 294.325C252.746 308.211 248.794 321.99 234.772 328.622L234.745 328.595ZM295.759 296.923C282.414 306.073 267.553 300.091 256.508 290.67C262.328 287.368 268.067 283.957 273.724 280.384C284.173 273.806 294.46 266.876 304.529 259.622C306.966 272.967 308.508 288.126 295.759 296.896V296.923ZM310.566 255.264C325.373 244.328 339.665 232.634 353.254 220.209C355.853 230.604 356.99 242.839 350.358 251.718C341.235 263.953 323.207 259.73 310.539 255.237L310.566 255.264ZM1126.19 110.632C1130.31 126.684 1133.99 142.98 1134.77 159.601C1135.18 168.344 1135.21 177.629 1133.26 186.21C1130.79 197.119 1122.05 211.574 1108.11 197.985C1098.31 188.43 1097.01 170.753 1095.85 158.031C1094.41 142.331 1094.33 126.468 1094.98 110.714C1096.17 82.399 1100.18 54.4093 1103.53 26.3114C1108.52 54.653 1119.05 82.8321 1126.19 110.632ZM1073.51 121.135C1067.67 137.539 1060.82 153.943 1051.53 168.75C1042.74 182.799 1021.76 207.811 1002.19 197.823C983.401 188.24 990.358 163.255 998.993 149.558C1008.74 134.156 1021.11 120.107 1032.4 105.814C1039.06 97.3954 1045.8 89.0581 1052.62 80.7749C1067.75 67.0236 1082.72 51.6212 1094.95 35.0277C1088.86 64.046 1083.53 93.0102 1073.51 121.135ZM968.296 81.3162C1010.8 58.6051 1054.7 35.1631 1100.2 16.7559C1100.15 17.0537 1100.1 17.3514 1100.04 17.6221C1097.04 21.1141 1094.09 24.6602 1091.19 28.2062C1078.31 42.6342 1065.58 57.2246 1053.1 72.0315C1036.43 88.1377 1018.18 102.512 998.668 115.045C988.463 121.595 977.987 127.686 967.268 133.343C960.744 136.808 954.058 140.463 946.993 142.737C943.663 143.819 937.518 146.391 934.216 145.579C920.817 142.303 926.068 134.21 929.154 128.254C939.088 109.062 952 94.7968 968.269 81.2621L968.296 81.3162ZM947.94 92.171C935.894 103.567 925.879 117.752 920.844 132.558C910.422 163.174 954.491 146.472 966.293 140.436C988.761 128.958 1010.28 115.397 1030.15 99.8046C1022.49 109.225 1014.88 118.726 1007.38 128.254C997.531 140.76 985.918 154.268 984.159 170.753C982.805 183.503 988.327 198.229 1000.64 203.724C1032.48 217.962 1059.03 170.483 1069.1 148.448C1077.74 129.527 1084.69 109.495 1090.22 89.031C1088.81 105.895 1088.16 122.786 1088.62 139.651C1089.16 158.653 1089.4 208.65 1117.5 211.33C1145.98 214.064 1142 161.55 1140 146.256C1138.32 133.289 1135.37 120.54 1132.07 107.898C1146.36 145.146 1164.79 180.715 1189.4 211.411C1137.26 249.769 1064.74 251.988 1003.35 237.615C973.358 230.604 944.475 218.937 918.001 203.182C891.555 187.428 870.089 167.64 848.704 145.958C881.81 127.984 914.861 109.929 948.021 92.171H947.94ZM798.382 222.185C782.573 212.44 780.083 195.603 786.147 179.605C790.532 177.277 794.89 174.949 799.248 172.621C807.396 191.461 819.929 208.028 834.682 222.537C822.663 227.112 810.32 229.575 798.355 222.212L798.382 222.185ZM907.39 275.133C906.957 273.671 905.387 272.561 903.817 273.644C874.203 294.081 834.492 259.053 839.5 227.139C852.25 238.914 866.353 249.308 880.537 258.377C889.443 264.061 898.593 269.367 907.959 274.266C907.688 274.51 907.498 274.781 907.363 275.133H907.39ZM943.609 310.052C928.369 304.503 917.352 291.618 912.317 276.513C936.49 288.776 962.016 298.385 988.273 305.18C973.575 311.541 959.742 315.926 943.636 310.052H943.609ZM1043.52 336.851C1025.06 335.497 1005.27 326.754 999.209 307.886C999.209 307.886 999.209 307.859 999.182 307.832C1001.51 308.374 1003.87 308.888 1006.22 309.375C1032.96 314.952 1060.28 317.631 1087.59 317.442C1076.76 330.977 1062.31 338.231 1043.55 336.851H1043.52ZM1143.06 329.596C1128.57 331.978 1112.52 329.325 1103.81 316.982C1114.66 316.44 1125.51 315.439 1136.29 313.977C1146.22 312.624 1157.32 311.027 1168.72 308.807C1163.25 319.635 1156.75 327.349 1143.06 329.569V329.596ZM1227.19 312.597C1210.81 327.674 1192.89 320.853 1178 307.751C1177.62 307.399 1177.19 307.237 1176.78 307.156C1201.71 301.633 1227.02 292.674 1243.81 276.161C1240.61 289.506 1238.01 302.608 1227.16 312.624L1227.19 312.597ZM1128.71 307.562C1087.1 312.163 1044.82 309.863 1003.95 300.984C924.633 283.714 844.968 242.298 803.146 170.537C816.789 163.228 830.378 155.865 843.994 148.502C882.595 198.824 946.722 231.876 1007.6 244.923C1039.52 251.772 1072.59 253.64 1105 249.633C1134.83 245.925 1170.83 238.21 1193.32 216.257C1199.79 223.999 1206.67 231.389 1214 238.427C1223.8 247.793 1234.23 256.671 1245.16 265.009C1245.16 265.442 1245.19 265.875 1245.3 266.281C1212.41 293.025 1170.31 302.987 1128.71 307.589V307.562Z"/><path fill="#fff" d="M1717.25 131.638C1708.18 127.28 1700.06 130.366 1695.87 137.674C1691.21 145.822 1695.87 156.027 1703.99 159.79C1712.59 163.796 1722.39 158.789 1725.72 150.208C1728.59 142.791 1724.64 135.211 1717.25 131.665V131.638ZM1719.15 150.559C1715.46 155.865 1708.34 157.11 1703.47 152.644C1694.51 144.415 1703.74 132.315 1713.08 134.832C1721.61 137.133 1721.91 146.607 1719.15 150.587V150.559Z"/><path fill="#fff" d="M1755.42 122.786C1764.03 126.793 1773.83 121.785 1777.15 113.204C1780.02 105.787 1776.07 98.2075 1768.68 94.6615C1759.61 90.3033 1751.49 93.3892 1747.3 100.698C1742.64 108.846 1747.3 119.051 1755.42 122.814V122.786ZM1764.54 97.8286C1773.07 100.129 1773.37 109.604 1770.6 113.583C1766.92 118.888 1759.8 120.134 1754.93 115.667C1745.97 107.438 1755.2 95.3382 1764.54 97.8556V97.8286Z"/><path fill="#fff" d="M1756.31 58.7396C1764.92 62.7459 1774.72 57.738 1778.05 49.1571C1780.92 41.7401 1776.96 34.1607 1769.57 30.6146C1760.51 26.2564 1752.39 29.3423 1748.19 36.651C1743.53 44.7989 1748.19 55.004 1756.31 58.7667V58.7396ZM1765.43 33.7546C1773.96 36.0555 1774.26 45.5298 1771.5 49.509C1767.82 54.8146 1760.7 56.0597 1755.82 51.5933C1746.86 43.3642 1756.09 31.2642 1765.43 33.7817V33.7546Z"/><path fill="#fff" d="M1722.94 5.49562C1730.03 8.79808 1737.93 5.9558 1742.37 0.0546875H1733.6C1730.89 1.32695 1727.81 1.38108 1725.02 0.0546875H1716.3C1718.01 2.35558 1720.28 4.2775 1722.91 5.49562H1722.94Z"/><path fill="#fff" d="M1540.68 17.2166C1549.29 21.2229 1559.08 16.2151 1562.41 7.6341C1563.42 5.06251 1563.58 2.49093 1563.06 0.0546875H1557.14C1557.73 3.03231 1557.14 6.11822 1555.84 8.01307C1552.15 13.3187 1545.04 14.5638 1540.16 10.0974C1536.78 6.98443 1535.99 3.30301 1536.83 0.0817568H1530.82C1529.82 7.0115 1534.13 14.2119 1540.65 17.2437L1540.68 17.2166Z"/><path fill="#fff" d="M1509.09 65.0482C1517.7 69.0545 1527.5 64.0466 1530.82 55.4657C1533.69 48.0487 1529.74 40.4693 1522.35 36.9232C1513.28 32.565 1505.16 35.6509 1500.97 42.9596C1496.31 51.1075 1500.97 61.3126 1509.09 65.0753V65.0482ZM1518.21 40.0903C1526.74 42.3912 1527.04 51.8654 1524.27 55.8446C1520.59 61.1502 1513.47 62.3954 1508.6 57.929C1499.64 49.6999 1508.87 37.5999 1518.21 40.1174V40.0903Z"/><path fill="#fff" d="M1520 121.325C1522.87 113.908 1518.91 106.329 1511.52 102.783C1502.46 98.4244 1494.33 101.51 1490.14 108.819C1485.48 116.967 1490.14 127.172 1498.26 130.935C1506.87 134.941 1516.67 129.933 1520 121.352V121.325ZM1497.77 123.761C1488.81 115.532 1498.04 103.432 1507.38 105.95C1515.91 108.251 1516.21 117.725 1513.45 121.704C1509.76 127.01 1502.65 128.255 1497.77 123.788V123.761Z"/><path fill="#fff" d="M1522.35 163.228C1513.28 158.87 1505.16 161.956 1500.97 169.264C1496.31 177.412 1500.97 187.617 1509.09 191.38C1517.7 195.386 1527.5 190.378 1530.82 181.797C1533.69 174.38 1529.74 166.801 1522.35 163.255V163.228ZM1524.25 182.149C1520.57 187.455 1513.45 188.7 1508.57 184.234C1499.61 176.005 1508.84 163.905 1518.18 166.422C1526.71 168.723 1527.01 178.197 1524.25 182.176V182.149Z"/><path fill="#fff" d="M1557.54 218.259C1548.47 213.901 1540.35 216.987 1536.16 224.296C1531.5 232.443 1536.16 242.649 1544.28 246.411C1552.89 250.417 1562.68 245.41 1566.01 236.829C1568.88 229.412 1564.93 221.832 1557.54 218.286V218.259ZM1559.44 237.181C1555.76 242.486 1548.64 243.731 1543.76 239.265C1534.8 231.036 1544.03 218.936 1553.37 221.453C1561.9 223.754 1562.2 233.228 1559.44 237.208V237.181Z"/><path fill="#fff" d="M1609.87 259.784C1600.8 255.426 1592.68 258.512 1588.48 265.821C1583.83 273.969 1588.48 284.174 1596.6 287.937C1605.21 291.943 1615.01 286.935 1618.34 278.354C1621.21 270.937 1617.26 263.358 1609.87 259.812V259.784ZM1611.79 278.706C1608.11 284.012 1600.99 285.257 1596.12 280.79C1587.16 272.561 1596.39 260.461 1605.73 262.979C1614.25 265.28 1614.55 274.754 1611.79 278.733V278.706Z"/><path fill="#fff" d="M1672.13 285.933C1663.06 281.575 1654.94 284.661 1650.74 291.969C1646.09 300.117 1650.74 310.322 1658.86 314.085C1667.47 318.091 1677.27 313.083 1680.6 304.502C1683.47 297.086 1679.52 289.506 1672.13 285.96V285.933ZM1674.05 304.854C1670.37 310.16 1663.25 311.405 1658.38 306.939C1649.42 298.71 1658.65 286.61 1667.99 289.127C1676.51 291.428 1676.81 300.902 1674.05 304.881V304.854Z"/><path fill="#fff" d="M1739.23 300.118C1730.16 295.76 1722.04 298.846 1717.85 306.155C1713.19 314.303 1717.85 324.508 1725.97 328.271C1734.58 332.277 1744.37 327.269 1747.7 318.688C1750.57 311.271 1746.62 303.692 1739.23 300.146V300.118ZM1741.13 319.04C1737.44 324.346 1730.33 325.591 1725.45 321.124C1716.49 312.895 1725.72 300.795 1735.06 303.313C1743.59 305.614 1743.89 315.088 1741.13 319.067V319.04Z"/><path fill="#fff" d="M1789.12 321.935C1797.73 325.941 1807.53 320.933 1810.86 312.352C1813.73 304.935 1809.78 297.356 1802.39 293.81C1793.32 289.452 1785.2 292.538 1781 299.846C1776.34 307.994 1781 318.199 1789.12 321.962V321.935ZM1798.24 296.977C1806.77 299.278 1807.07 308.752 1804.31 312.731C1800.63 318.037 1793.51 319.282 1788.63 314.816C1779.67 306.587 1788.9 294.487 1798.24 297.004V296.977Z"/><path fill="#fff" d="M1852.87 301.445C1861.48 305.451 1871.27 300.443 1874.6 291.862C1877.47 284.445 1873.52 276.866 1866.13 273.32C1857.06 268.961 1848.94 272.047 1844.75 279.356C1840.09 287.504 1844.75 297.709 1852.87 301.472V301.445ZM1861.99 276.487C1870.52 278.788 1870.81 288.262 1868.05 292.241C1864.37 297.547 1857.25 298.792 1852.38 294.325C1843.42 286.096 1852.65 273.996 1861.99 276.514V276.487Z"/><path fill="#fff" d="M1897.99 251.366C1893.34 259.514 1897.99 269.719 1906.11 273.482C1910.77 275.647 1915.75 275.16 1919.89 272.913V265.875C1915.99 269.746 1909.93 270.287 1905.63 266.308C1896.67 258.079 1905.9 245.979 1915.24 248.497C1917.21 249.038 1918.75 249.958 1919.89 251.122V245.6C1919.73 245.519 1919.54 245.411 1919.38 245.329C1910.31 240.971 1902.19 244.057 1897.99 251.366Z"/><path fill="#fff" d="M851.032 170.456C841.964 166.098 833.843 169.184 829.647 176.493C824.991 184.641 829.647 194.846 837.768 198.608C846.376 202.615 856.175 197.607 859.504 189.026C862.374 181.609 858.422 174.03 851.032 170.483V170.456ZM852.927 189.378C849.245 194.683 842.126 195.929 837.254 191.462C828.294 183.233 837.524 171.133 846.863 173.651C855.39 175.951 855.688 185.426 852.927 189.405V189.378Z"/><path fill="#fff" d="M893.45 208.353C884.382 203.995 876.261 207.081 872.065 214.389C867.409 222.537 872.065 232.742 880.186 236.505C888.794 240.511 898.593 235.503 901.922 226.922C904.792 219.505 900.84 211.926 893.45 208.38V208.353ZM895.345 227.274C891.663 232.58 884.544 233.825 879.671 229.359C870.712 221.13 879.942 209.03 889.281 211.547C897.808 213.848 898.106 223.322 895.345 227.301V227.274Z"/><path fill="#fff" d="M949.376 237.208C940.307 232.85 932.187 235.936 927.991 243.245C923.335 251.393 927.991 261.598 936.112 265.36C944.72 269.367 954.519 264.359 957.848 255.778C960.718 248.361 956.765 240.781 949.376 237.235V237.208ZM951.298 256.13C947.616 261.435 940.497 262.681 935.624 258.214C926.664 249.985 935.895 237.885 945.234 240.403C953.761 242.703 954.059 252.178 951.298 256.157V256.13Z"/><path fill="#fff" d="M1010.74 257.077C1001.67 252.719 993.552 255.805 989.356 263.114C984.7 271.262 989.356 281.467 997.477 285.23C1006.08 289.236 1015.88 284.228 1019.21 275.647C1022.08 268.23 1018.13 260.651 1010.74 257.105V257.077ZM1012.64 275.999C1008.95 281.305 1001.83 282.55 996.962 278.083C988.003 269.854 997.233 257.754 1006.57 260.272C1015.1 262.573 1015.4 272.047 1012.64 276.026V275.999Z"/><path fill="#fff" d="M1075.71 263.384C1066.64 259.026 1058.52 262.112 1054.32 269.421C1049.67 277.568 1054.32 287.774 1062.44 291.536C1071.05 295.542 1080.85 290.535 1084.18 281.954C1087.05 274.537 1083.1 266.957 1075.71 263.411V263.384ZM1077.6 282.306C1073.92 287.611 1066.8 288.856 1061.93 284.39C1052.97 276.161 1062.2 264.061 1071.54 266.578C1080.07 268.879 1080.36 278.353 1077.6 282.333V282.306Z"/><path fill="#fff" d="M1147.9 258.863C1138.83 254.504 1130.71 257.59 1126.52 264.899C1121.86 273.047 1126.52 283.252 1134.64 287.015C1143.25 291.021 1153.04 286.013 1156.37 277.432C1159.24 270.015 1155.29 262.436 1147.9 258.89V258.863ZM1149.8 277.784C1146.11 283.09 1139 284.335 1134.12 279.868C1125.16 271.639 1134.39 259.539 1143.73 262.057C1152.26 264.358 1152.56 273.832 1149.8 277.811V277.784Z"/><path fill="#fff" d="M1207.45 239.023C1198.39 234.665 1190.26 237.751 1186.07 245.059C1181.41 253.207 1186.07 263.412 1194.19 267.175C1202.8 271.181 1212.6 266.173 1215.93 257.592C1218.8 250.175 1214.84 242.596 1207.45 239.05V239.023ZM1209.35 257.944C1205.67 263.25 1198.55 264.495 1193.68 260.029C1184.72 251.8 1193.95 239.7 1203.29 242.217C1211.81 244.518 1212.11 253.992 1209.35 257.971V257.944Z"/></g></svg>