<svg width="484" height="704" viewBox="0 0 484 704" fill="none" xmlns="http://www.w3.org/2000/svg">
<path d="M242 -161L245.693 258.079L314.898 -155.263L252.987 259.234L386.002 -138.192L260.011 261.517L453.56 -110.209L266.592 264.87L515.908 -72.0019L272.567 269.211L571.512 -24.5117L277.789 274.433L619.002 31.0921L282.13 280.408L657.209 93.4404L285.483 286.989L685.192 160.998L287.766 294.013L702.263 232.102L288.921 301.307L708 305L288.921 308.693L702.263 377.898L287.766 315.987L685.192 449.002L285.483 323.011L657.209 516.56L282.13 329.592L619.002 578.908L277.789 335.567L571.512 634.512L272.567 340.789L515.908 682.002L266.592 345.13L453.56 720.209L260.011 348.483L386.002 748.192L252.987 350.766L314.898 765.263L245.693 351.921L242 771L238.307 351.921L169.102 765.263L231.013 350.766L97.9981 748.192L223.989 348.483L30.4404 720.209L217.408 345.13L-31.9079 682.002L211.433 340.789L-87.5117 634.512L206.211 335.567L-135.002 578.908L201.87 329.592L-173.209 516.56L198.517 323.011L-201.192 449.002L196.234 315.987L-218.263 377.898L195.079 308.693L-224 305L195.079 301.307L-218.263 232.102L196.234 294.013L-201.192 160.998L198.517 286.989L-173.209 93.4404L201.87 280.408L-135.002 31.0921L206.211 274.433L-87.5117 -24.5117L211.433 269.211L-31.9079 -72.0019L217.408 264.87L30.4404 -110.209L223.989 261.517L97.9981 -138.192L231.013 259.234L169.102 -155.263L238.307 258.079L242 -161Z" fill="url(#paint0_radial_131_26612)"/>
<defs>
<radialGradient id="paint0_radial_131_26612" cx="0" cy="0" r="1" gradientUnits="userSpaceOnUse" gradientTransform="translate(242 305) rotate(90) scale(282.882)">
<stop stop-color="#D93A61"/>
<stop offset="1" stop-color="#D93A61" stop-opacity="0"/>
</radialGradient>
</defs>
</svg>
